<svg width="89" height="89" viewBox="0 0 89 89" fill="none" xmlns="http://www.w3.org/2000/svg">
<ellipse cx="44" cy="44.5" rx="38.5" ry="38.9375" fill="url(#paint0_linear_2013_312)"/>
<path d="M63.2131 28.3932C63.5559 26.153 61.4499 24.3848 59.4804 25.2593L20.2532 42.6778C18.8409 43.305 18.9442 45.4686 20.409 45.9404L28.4987 48.5458C30.0426 49.0431 31.7144 48.786 33.0627 47.8439L51.3012 35.1001C51.8512 34.7158 52.4506 35.5067 51.9807 35.9967L38.8523 49.686C37.5788 51.014 37.8316 53.2642 39.3634 54.2357L54.0621 63.5579C55.7107 64.6035 57.8316 63.5531 58.14 61.5383L63.2131 28.3932Z" fill="white"/>
<defs>
<linearGradient id="paint0_linear_2013_312" x1="44" y1="5.5625" x2="44" y2="83.4375" gradientUnits="userSpaceOnUse">
<stop stop-color="#37BBFE"/>
<stop offset="1" stop-color="#007DBB"/>
</linearGradient>
</defs>
</svg>
