<svg width="89" height="89" viewBox="0 0 89 89" fill="none" xmlns="http://www.w3.org/2000/svg">
<path d="M68.985 23.3131C64.401 21.2982 59.4997 19.8337 54.3758 19C53.7463 20.0689 53.0112 21.5066 52.5044 22.6503C47.0573 21.8807 41.6602 21.8807 36.3134 22.6503C35.8066 21.5066 35.0546 20.0689 34.4198 19C29.2901 19.8337 24.3833 21.3035 19.7995 23.3237C10.5539 36.4499 8.04754 49.2502 9.30071 61.8686C15.4329 66.171 21.3757 68.7844 27.2182 70.4946C28.6608 68.6295 29.9473 66.6467 31.0557 64.5569C28.9448 63.8033 26.923 62.8735 25.0126 61.7937C25.5195 61.4411 26.0152 61.0723 26.4942 60.6929C38.146 65.8129 50.8056 65.8129 62.3182 60.6929C62.8025 61.0723 63.2983 61.4411 63.7996 61.7937C61.8836 62.8786 59.8563 63.8086 57.7454 64.5623C58.8538 66.6467 60.1347 68.6348 61.5828 70.5C67.4309 68.7898 73.3793 66.1764 79.5115 61.8686C80.982 47.2406 76.9996 34.558 68.985 23.3131ZM32.643 54.1084C29.1453 54.1084 26.277 51.0405 26.277 47.3048C26.277 43.5689 29.0841 40.4959 32.643 40.4959C36.2021 40.4959 39.0703 43.5635 39.0091 47.3048C39.0148 51.0405 36.2021 54.1084 32.643 54.1084ZM56.1693 54.1084C52.6715 54.1084 49.803 51.0405 49.803 47.3048C49.803 43.5689 52.6102 40.4959 56.1693 40.4959C59.7281 40.4959 62.5966 43.5635 62.5353 47.3048C62.5353 51.0405 59.7281 54.1084 56.1693 54.1084Z" fill="#5865F2"/>
</svg>
